<?xml version="1.0" standalone="no"?>
<!DOCTYPE svg PUBLIC "-//W3C//DTD SVG 20010904//EN"
 "http://www.w3.org/TR/2001/REC-SVG-20010904/DTD/svg10.dtd">
<svg version="1.0" xmlns="http://www.w3.org/2000/svg"
 width="1024.000000pt" height="1024.000000pt" viewBox="0 0 1024.000000 1024.000000"
 preserveAspectRatio="xMidYMid meet">

<g transform="translate(0.000000,1024.000000) scale(0.100000,-0.100000)"
fill="#98181b" stroke="none">
<path d="M6580 7754 c-736 -27 -1040 -65 -1393 -170 -357 -108 -638 -249
-1022 -514 -245 -169 -463 -310 -680 -440 -556 -332 -814 -544 -1113 -917
-163 -202 -199 -228 -432 -307 -193 -67 -279 -115 -376 -211 -117 -115 -164
-223 -164 -375 0 -252 158 -457 433 -560 56 -21 119 -41 140 -45 33 -7 42 -15
86 -89 27 -44 78 -119 112 -166 75 -102 350 -380 469 -474 129 -103 438 -306
595 -391 658 -360 1609 -677 2350 -784 267 -39 449 -53 770 -58 440 -7 672 19
923 102 647 216 1184 900 1406 1790 144 579 163 1275 50 1859 -114 594 -339
1057 -668 1373 -199 193 -402 299 -673 354 -95 19 -145 22 -418 24 -170 1
-348 1 -395 -1z m772 -248 c192 -37 387 -141 551 -294 161 -152 327 -424 442
-727 267 -705 288 -1668 53 -2440 -96 -315 -260 -642 -440 -877 -96 -125 -293
-319 -403 -396 -280 -198 -634 -288 -926 -237 -471 82 -867 447 -1090 1007
-77 193 -140 465 -176 753 -27 219 -24 641 5 850 116 822 386 1460 796 1884
214 219 411 349 659 433 51 17 124 36 162 43 95 18 277 18 367 1z m-1088 -62
c-83 -54 -138 -99 -233 -189 -72 -69 -201 -215 -234 -266 -11 -15 -34 -31 -60
-39 -66 -19 -373 -139 -451 -175 -39 -18 -74 -30 -78 -27 -7 8 -28 371 -28
497 l0 84 69 21 c243 72 457 108 766 130 183 12 296 17 308 12 5 -2 -22 -24
-59 -48z m-1254 -275 c0 -75 17 -428 23 -492 1 -12 -13 -26 -43 -41 -292 -153
-422 -225 -569 -313 -96 -57 -175 -102 -176 -101 -7 8 53 395 86 558 17 83 23
98 51 123 52 44 194 139 303 202 92 53 300 154 318 155 4 0 7 -41 7 -91z
m-879 -491 c-7 -35 -27 -179 -44 -320 l-32 -256 -255 -170 c-140 -93 -308
-208 -373 -256 -65 -47 -120 -86 -123 -86 -7 0 -3 549 4 605 l7 50 230 137
c262 156 407 246 515 317 41 27 77 48 79 46 2 -2 -2 -32 -8 -67z m1454 -20
c-84 -135 -207 -426 -260 -613 -10 -33 -20 -64 -23 -70 -7 -12 -24 89 -52 310
-35 286 -36 252 7 271 82 36 338 142 346 143 5 1 -4 -18 -18 -41z m-506 -433
c23 -192 57 -387 95 -549 l24 -98 -52 -23 c-28 -13 -141 -64 -251 -113 -110
-50 -303 -140 -429 -201 -126 -62 -231 -109 -234 -106 -21 21 -26 759 -6 833
9 33 344 236 699 424 l120 64 7 -26 c3 -14 16 -106 27 -205z m-1951 -381 c0
-140 4 -283 7 -317 l7 -62 -109 -85 c-143 -111 -346 -281 -405 -338 l-46 -45
-8 48 c-3 26 -5 157 -2 291 4 211 7 247 23 271 33 52 299 308 415 401 63 50
116 92 116 92 1 0 2 -115 2 -256z m926 -754 l7 -65 -128 -69 c-70 -38 -202
-114 -293 -169 -91 -55 -179 -108 -197 -119 l-31 -19 -11 49 c-17 81 -59 388
-72 531 l-12 134 24 18 c96 75 323 236 493 350 l201 135 6 -355 c4 -196 9
-385 13 -421z m-1651 13 l6 -258 -39 -35 c-57 -52 -154 -163 -233 -267 -38
-51 -73 -93 -77 -93 -24 0 -154 47 -213 77 -85 42 -151 102 -185 168 -22 41
-26 63 -26 120 1 81 19 128 70 185 54 59 116 93 274 150 178 64 289 117 355
169 28 22 53 40 56 40 3 1 9 -115 12 -256z m2736 128 c-27 -167 -41 -368 -38
-560 l3 -173 -169 -68 c-197 -78 -369 -155 -472 -210 -40 -21 -75 -35 -77 -31
-27 43 -145 716 -129 732 20 19 338 177 533 264 118 53 244 109 280 125 36 17
70 30 76 30 7 0 5 -36 -7 -109z m-1979 -41 c0 -66 34 -332 65 -505 l26 -140
-23 -18 c-13 -10 -100 -76 -195 -147 -94 -71 -205 -156 -245 -189 -48 -39 -75
-56 -79 -48 -16 30 -72 318 -108 557 l-10 65 97 94 c112 107 443 379 465 380
4 1 7 -21 7 -49z m934 -427 c10 -101 53 -338 88 -492 17 -75 33 -146 35 -157
4 -18 -10 -30 -89 -75 -130 -74 -287 -171 -392 -241 -48 -33 -92 -56 -96 -51
-14 14 -89 267 -145 493 -41 160 -51 216 -42 222 113 74 613 366 628 367 3 1
9 -29 13 -66z m-1649 -205 c12 -87 53 -284 90 -427 l35 -135 -27 -28 c-15 -15
-32 -28 -37 -28 -26 0 -272 331 -292 393 -4 11 12 40 47 85 70 89 161 192 170
192 4 0 10 -24 14 -52z m990 -773 c26 -82 47 -154 48 -159 1 -4 -52 -48 -118
-98 -182 -135 -157 -124 -212 -92 -27 15 -105 65 -174 110 l-126 84 -37 127
c-21 71 -41 140 -46 155 -8 26 -4 32 68 90 42 35 159 126 261 204 l186 141 51
-206 c29 -113 73 -273 99 -356z m1690 448 c18 -182 59 -389 111 -560 14 -47
24 -86 22 -88 -1 -2 -64 -31 -138 -65 -74 -34 -204 -98 -288 -142 -86 -45
-157 -77 -162 -72 -26 27 -230 631 -230 681 0 15 37 38 178 106 169 82 464
207 489 207 7 0 14 -26 18 -67z m-840 -365 c14 -65 125 -388 180 -527 32 -78
56 -143 54 -145 -2 -1 -56 -33 -119 -71 -63 -38 -148 -90 -189 -117 -41 -26
-78 -48 -82 -48 -18 0 -204 81 -220 96 -26 23 -209 457 -209 495 0 20 533 348
567 349 6 0 15 -15 18 -32z m-716 -478 c7 -23 29 -84 51 -135 21 -52 35 -95
31 -95 -6 0 -270 137 -279 145 -5 4 162 123 174 124 6 1 16 -17 23 -39z m1795
-63 c135 -310 397 -629 646 -787 l35 -22 -115 6 c-207 11 -566 70 -850 140
l-95 23 -58 94 c-31 52 -86 149 -120 217 l-62 123 25 19 c52 39 533 272 553
267 4 -1 23 -37 41 -80z m-642 -554 c8 -10 6 -13 -9 -13 -34 0 -364 111 -361
121 2 5 55 40 118 78 l115 69 63 -121 c35 -67 68 -127 74 -134z"/>
<path d="M7525 6274 c-142 -34 -314 -148 -400 -265 -69 -94 -90 -156 -89 -269
1 -88 4 -104 48 -219 49 -130 59 -180 75 -376 9 -101 15 -129 41 -182 56 -113
143 -163 285 -163 242 0 472 166 568 411 127 322 29 865 -185 1019 -80 59
-212 75 -343 44z"/>
<path d="M6531 5304 c-170 -45 -335 -200 -427 -398 -117 -255 -119 -553 -4
-801 114 -246 327 -395 561 -395 186 1 389 142 486 336 34 70 38 86 38 153 0
104 -31 165 -141 277 -129 133 -147 189 -120 360 27 171 18 270 -35 363 -57
101 -208 146 -358 105z"/>
</g>
</svg>
